<?xml version="1.0" encoding="iso-8859-1"?>
<!-- Generator: Adobe Illustrator 19.0.0, SVG Export Plug-In . SVG Version: 6.00 Build 0)  -->
<svg version="1.1" id="Layer_1" xmlns="http://www.w3.org/2000/svg" xmlns:xlink="http://www.w3.org/1999/xlink" x="0px" y="0px"
	 viewBox="0 0 60 60" style="enable-background:new 0 0 60 60;" xml:space="preserve">
<g id="XMLID_611_">
	<path id="XMLID_614_" style="fill:#1E4063;" d="M30.497,37.001v-4.446c-0.895,1.074-1.845,1.91-2.85,2.506
		c-1.005,0.597-2.024,1.039-3.058,1.328c-1.034,0.288-2.069,0.462-3.103,0.522s-6.755,0.09-7.71,0.09v-7.042
		c1.273,0,7.188-0.114,8.292-0.343c1.104-0.229,2.054-0.642,2.85-1.238s1.417-1.407,1.865-2.432
		c0.448-1.024,0.671-2.332,0.671-3.924v-8.056h5.759c2.566,0,4.69,0.433,6.371,1.298c1.681,0.865,3.019,2.029,4.013,3.491
		c0.995,1.462,1.686,3.163,2.074,5.102c0.388,1.94,0.572,3.983,0.552,6.132v7.012H30.497z M34.317,21.127
		c0.06,3.581-0.537,6.525-1.79,8.832h6.505c0.02-1.034-0.03-2.054-0.149-3.058s-0.348-1.91-0.686-2.715s-0.821-1.482-1.447-2.029
		C36.122,21.609,35.311,21.266,34.317,21.127z"/>
	<rect id="XMLID_612_" x="13.776" y="38.992" style="fill:#1E4063;" width="32.446" height="7.042"/>
</g>
</svg>
